<svg xmlns="http://www.w3.org/2000/svg" viewBox="0 0 100 100">
  <defs>
    <linearGradient id="bgGrad" x1="0%" y1="0%" x2="100%" y2="100%">
      <stop offset="0%" stop-color="#FAF7F4" />
      <stop offset="100%" stop-color="#F5F0EB" />
    </linearGradient>
  </defs>
  
  <!-- Fondo crema -->
  <circle cx="50" cy="50" r="48" fill="url(#bgGrad)" stroke="#E8DDD4" stroke-width="2"/>
  
  <!-- Silueta de mujer estilizada (simplificada del logo) -->
  <g transform="translate(25, 15) scale(0.55)" fill="#4A3728">
    <!-- Cabello ondulado -->
    <path d="M75 10 C60 5, 45 8, 35 20 C25 32, 20 50, 22 70 C24 85, 30 95, 40 100 L35 100 C20 95, 12 80, 10 60 C8 40, 15 20, 35 8 C50 0, 70 2, 82 15 C90 25, 92 40, 88 55 C85 65, 78 72, 70 75" />
    <!-- Perfil del rostro -->
    <path d="M70 75 C65 72, 62 65, 62 58 C62 50, 65 45, 70 42 C72 40, 72 38, 70 36 C68 34, 65 35, 63 38 C58 45, 55 55, 55 65 C55 78, 60 88, 70 95 L65 100 C50 92, 42 78, 42 62 C42 48, 48 36, 58 30 C65 26, 72 28, 76 35 C78 40, 77 45, 73 48 C70 50, 68 55, 68 60 C68 68, 72 75, 80 80" />
  </g>
</svg>
